<svg class="Icons_empty__2vQf4 Empty_icon__1S3co" width="54" height="64" viewBox="0 0 54 64" xmlns="http://www.w3.org/2000/svg"><g fill="none" fill-rule="evenodd"><path d="M-5 0h64v64H-5z"></path><path d="M54 17.5v24a2.5 2.5 0 1 1-5 0V20h-5v7.5a2.5 2.5 0 1 1-5 0V20H15v7.5a2.5 2.5 0 1 1-5 0V20H5v39h26.5a2.5 2.5 0 1 1 0 5h-29A2.5 2.5 0 0 1 0 61.5v-44A2.5 2.5 0 0 1 2.5 15h7.618C11.111 6.565 18.303 0 27 0c8.697 0 15.889 6.565 16.882 15H51.5a2.5 2.5 0 0 1 2.5 2.5zM38.832 15C37.877 9.332 32.935 5 27 5c-5.935 0-10.877 4.332-11.832 10h23.664z" fill="#0a0143" fill-rule="nonzero"></path><path d="M54 56.5a2.5 2.5 0 0 1-2.5 2.5H49v2.5a2.5 2.5 0 1 1-5 0V59h-2.5a2.5 2.5 0 1 1 0-5H44v-2.5a2.5 2.5 0 1 1 5 0V54h2.5a2.5 2.5 0 0 1 2.5 2.5z" fill="#0a0143" fill-rule="nonzero"></path></g></svg>