<svg width="60" height="60" viewBox="0 0 60 60" fill="none" xmlns="http://www.w3.org/2000/svg">
<g clip-path="url(#clip0_3_0)">
<path d="M60 30.0385C59.9998 13.4509 46.5529 0.00390318 29.9653 0.00402832C28.8898 0.00402832 27.815 0.0618449 26.7457 0.177103C25.7655 0.277218 24.7974 0.441407 23.8423 0.640637C23.6575 0.679306 23.4725 0.720103 23.2877 0.762777C17.6603 2.044 12.5219 4.92119 8.48864 9.04932C8.11358 9.43377 7.74641 9.8296 7.38737 10.2367C-3.50768 22.7446 -2.20018 41.7165 10.3079 52.6115C22.2826 63.0421 40.3078 62.3481 51.4451 51.0277C51.8209 50.6432 52.188 50.2474 52.5464 49.8403C57.3545 44.3646 60.0042 37.3255 60 30.0385ZM50.1076 49.526C49.9494 49.6891 49.7862 49.8463 49.625 50.0055C49.4388 50.1887 49.2526 50.3739 49.0614 50.5521C48.8952 50.7073 48.724 50.8525 48.5538 51.0077C48.3596 51.1799 48.1663 51.3521 47.9681 51.5182C47.7929 51.6644 47.6147 51.8056 47.4365 51.9477C47.2363 52.1079 47.036 52.2681 46.8298 52.4223C46.6476 52.5594 46.4624 52.6926 46.2762 52.8228C46.0689 52.9709 45.8607 53.1231 45.6494 53.2613C45.4602 53.3894 45.269 53.5135 45.0768 53.6357C44.8625 53.7738 44.6467 53.9074 44.429 54.0361C44.2288 54.1533 44.0376 54.2674 43.8404 54.3805C43.6187 54.5067 43.3958 54.6298 43.1716 54.75C42.9714 54.8567 42.7711 54.9612 42.5709 55.0633C42.3426 55.1785 42.1124 55.2896 41.8811 55.3987C41.6809 55.4938 41.4726 55.5889 41.2664 55.679C41.0311 55.7792 40.7928 55.8793 40.5546 55.9794C40.3473 56.0635 40.1411 56.1476 39.9329 56.2267C39.6886 56.3198 39.4433 56.4069 39.197 56.492C38.9888 56.5651 38.7805 56.6381 38.5693 56.7062C38.319 56.7873 38.0687 56.8614 37.8134 56.9345C37.6042 56.9966 37.3939 57.0586 37.1827 57.1157C37.1016 57.1367 37.0205 57.1537 36.9394 57.1748C39.9028 54.2973 42.102 50.7262 43.3378 46.7848C45.714 47.4115 48.0144 48.2968 50.1977 49.4248C50.1646 49.4609 50.1366 49.4959 50.1076 49.526ZM22.1223 56.9425C21.869 56.8684 21.6148 56.7943 21.3645 56.7132C21.1532 56.6452 20.945 56.5721 20.7367 56.499C20.4905 56.4139 20.2442 56.3268 20.0009 56.2337C19.7927 56.1546 19.5874 56.0715 19.3812 55.9874C19.1419 55.8873 18.9026 55.7872 18.6654 55.687C18.4611 55.5969 18.2579 55.5042 18.0557 55.4087C17.8224 55.2986 17.5901 55.1865 17.3548 55.0703C17.1546 54.9702 16.9544 54.8701 16.7542 54.761C16.5279 54.6398 16.3036 54.5157 16.0794 54.3876C15.8791 54.2764 15.6889 54.1623 15.4957 54.0462C15.2755 53.914 15.0592 53.7779 14.843 53.6387C14.6527 53.5176 14.4625 53.3944 14.2753 53.2683C14.0621 53.1241 13.8508 52.9739 13.6416 52.8237C13.4584 52.6926 13.2751 52.5615 13.0949 52.4233C12.8877 52.2671 12.6845 52.1059 12.4822 51.9437C12.305 51.8026 12.1288 51.6624 11.9556 51.5173C11.7554 51.3511 11.5622 51.1779 11.368 51.0057C11.1978 50.8545 11.0266 50.7053 10.8604 50.5511C10.6691 50.3729 10.4839 50.1877 10.2977 50.0045C10.1365 49.8453 9.97234 49.6881 9.81416 49.525C9.78513 49.4939 9.7571 49.4619 9.72806 49.4318C11.9112 48.3033 14.2116 47.4177 16.588 46.7908C17.824 50.7321 20.023 54.3031 22.9863 57.1808C22.9052 57.1597 22.8231 57.1427 22.7421 57.1207C22.5398 57.0696 22.3306 57.0036 22.1223 56.9425ZM8.38351 12.1629C10.7884 13.4659 13.3386 14.4808 15.9813 15.1864C14.6858 19.6911 14.0057 24.3503 13.9599 29.0373H1.95611C2.17424 22.8566 4.43447 16.9225 8.38351 12.1629ZM9.82317 10.5511C9.98136 10.3869 10.1455 10.2297 10.3067 10.0705C10.4929 9.88729 10.6782 9.70308 10.8684 9.52587C11.0356 9.36969 11.2078 9.21952 11.379 9.06734C11.5722 8.89615 11.7644 8.72495 11.9626 8.55976C12.1368 8.41259 12.316 8.27143 12.4942 8.12926C12.6945 7.96908 12.8947 7.8089 13.1009 7.65472C13.2832 7.51756 13.4684 7.38441 13.6546 7.25426C13.8618 7.10609 14.0701 6.95391 14.2813 6.81575C14.4705 6.6876 14.6617 6.56346 14.854 6.44032C15.0682 6.30316 15.2835 6.168 15.5007 6.03986C15.6963 5.9231 15.8932 5.80821 16.0914 5.69546C16.313 5.56931 16.5355 5.44617 16.7592 5.32603C16.9594 5.21929 17.1596 5.11479 17.3599 5.01267C17.5881 4.89754 17.8184 4.78641 18.0497 4.67729C18.2499 4.58218 18.4581 4.48707 18.6644 4.39696C18.8996 4.29685 19.1379 4.19673 19.3762 4.09662C19.5834 4.01152 19.7897 3.92842 19.9989 3.84833C20.2412 3.75623 20.4865 3.67013 20.7317 3.58403C20.941 3.51094 21.1502 3.43786 21.3625 3.36878C21.6118 3.28869 21.863 3.2146 22.1153 3.14152C22.3266 3.08045 22.5358 3.01737 22.7481 2.96031C22.8292 2.93929 22.9102 2.92227 22.9913 2.90124C20.0279 5.77868 17.8288 9.34979 16.593 13.2912C14.2167 12.6645 11.9163 11.7792 9.73307 10.6512C9.76611 10.6161 9.79414 10.5811 9.82317 10.5511ZM37.8084 3.13451C38.0617 3.2086 38.316 3.28268 38.5663 3.36377C38.7775 3.43185 38.9858 3.50494 39.194 3.57802C39.4403 3.66312 39.6866 3.75022 39.9299 3.84333C40.1381 3.92242 40.3433 4.00551 40.5496 4.08961C40.7888 4.18973 41.0281 4.28984 41.2654 4.38996C41.4696 4.48006 41.6729 4.57279 41.8751 4.66828C42.1084 4.7784 42.3406 4.89053 42.5759 5.00667C42.7761 5.10678 42.9764 5.2069 43.1766 5.31602C43.4029 5.43716 43.6271 5.56131 43.8514 5.68945C44.0516 5.80058 44.2418 5.91471 44.435 6.03085C44.6553 6.163 44.8715 6.29916 45.0878 6.43832C45.278 6.55946 45.4682 6.6826 45.6554 6.80874C45.8687 6.95291 46.0789 7.10208 46.2882 7.25225C46.4724 7.3834 46.6556 7.51556 46.8368 7.65271C47.043 7.80789 47.2453 7.96908 47.4485 8.13127C47.6247 8.27143 47.8019 8.41159 47.9751 8.55776C48.1754 8.72395 48.3686 8.89715 48.5628 9.06935C48.733 9.22052 48.9042 9.36969 49.0704 9.52387C49.2616 9.70208 49.4468 9.88729 49.633 10.0705C49.7942 10.2297 49.9584 10.3869 50.1166 10.5501C50.1456 10.5811 50.1737 10.6131 50.2027 10.6432C48.0195 11.7717 45.7191 12.6574 43.3428 13.2842C42.1044 9.34241 39.9025 5.77167 36.9364 2.89523C37.0175 2.91626 37.0996 2.93328 37.1807 2.9553C37.3909 3.00736 37.6002 3.07344 37.8084 3.13451ZM45.9708 29.0373C45.925 24.3503 45.245 19.6911 43.9495 15.1864C46.592 14.4806 49.1422 13.4657 51.5472 12.1629C55.496 16.9226 57.7563 22.8567 57.9746 29.0373H45.9708ZM28.9642 14.9922C25.4639 14.9434 21.9782 14.533 18.5622 13.7678C20.925 7.16515 24.6803 2.694 28.9642 2.0853V14.9922ZM17.9335 15.679C21.5538 16.5045 25.2513 16.9455 28.9642 16.9945V29.0373H15.9622C16.0133 24.5159 16.6763 20.0223 17.9335 15.679ZM28.9642 31.0397V43.0825C25.2512 43.1313 21.5538 43.5723 17.9335 44.398C16.6764 40.0547 16.0133 35.561 15.9622 31.0397H28.9642ZM28.9642 45.0848V57.9917C24.6803 57.383 20.925 52.9119 18.5622 46.3092C21.9782 45.5442 25.4641 45.134 28.9642 45.0848ZM30.9665 45.0848C34.4668 45.1336 37.9526 45.544 41.3685 46.3092C39.0058 52.9119 35.2505 57.383 30.9665 57.9917V45.0848ZM41.9972 44.398C38.3769 43.5725 34.6794 43.1315 30.9665 43.0825V31.0397H43.9685C43.9176 35.561 43.2544 40.0547 41.9972 44.398ZM30.9665 29.0373V16.9945C34.6796 16.9457 38.3769 16.5047 41.9972 15.679C43.2543 20.0223 43.9174 24.516 43.9685 29.0373H30.9665ZM30.9665 14.9922V2.0853C35.2505 2.694 39.0058 7.16515 41.3685 13.7678C37.9526 14.5326 34.4668 14.943 30.9665 14.9922ZM13.9599 31.0397C14.0057 35.7267 14.6858 40.3859 15.9813 44.8906C13.3387 45.5964 10.7885 46.6113 8.38351 47.9141C4.43472 43.1544 2.17449 37.2203 1.95611 31.0397H13.9599ZM43.9495 44.8906C45.245 40.3859 45.925 35.7267 45.9708 31.0397H57.9746C57.7566 37.2204 55.4963 43.1545 51.5472 47.9141C49.1423 46.611 46.5922 45.5962 43.9495 44.8906Z" fill="url(#paint0_linear_3_0)"/>
</g>
<defs>
<linearGradient id="paint0_linear_3_0" x1="30" y1="60.0731" x2="30" y2="0.00385288" gradientUnits="userSpaceOnUse">
<stop stop-color="#006DF0"/>
<stop offset="1" stop-color="#00E7F0"/>
</linearGradient>
<clipPath id="clip0_3_0">
<rect width="60" height="60" fill="white"/>
</clipPath>
</defs>
</svg>
